<svg aria-roledescription="er" viewBox="0 0 473.022216796875 320" style="max-width: 473.022px; background-color: white;" xmlns:xlink="http://www.w3.org/1999/xlink" xmlns="http://www.w3.org/2000/svg" width="100%" id="mermaid-0"><style>#mermaid-0{font-family:"trebuchet ms",verdana,arial,sans-serif;font-size:16px;fill:#000000;}#mermaid-0 .error-icon{fill:#552222;}#mermaid-0 .error-text{fill:#552222;stroke:#552222;}#mermaid-0 .edge-thickness-normal{stroke-width:2px;}#mermaid-0 .edge-thickness-thick{stroke-width:3.5px;}#mermaid-0 .edge-pattern-solid{stroke-dasharray:0;}#mermaid-0 .edge-pattern-dashed{stroke-dasharray:3;}#mermaid-0 .edge-pattern-dotted{stroke-dasharray:2;}#mermaid-0 .marker{fill:#000000;stroke:#000000;}#mermaid-0 .marker.cross{stroke:#000000;}#mermaid-0 svg{font-family:"trebuchet ms",verdana,arial,sans-serif;font-size:16px;}#mermaid-0 .entityBox{fill:#cde498;stroke:#13540c;}#mermaid-0 .attributeBoxOdd{fill:#ffffff;stroke:#13540c;}#mermaid-0 .attributeBoxEven{fill:#f2f2f2;stroke:#13540c;}#mermaid-0 .relationshipLabelBox{fill:hsl(78.1578947368, 58.4615384615%, 84.5098039216%);opacity:0.7;background-color:hsl(78.1578947368, 58.4615384615%, 84.5098039216%);}#mermaid-0 .relationshipLabelBox rect{opacity:0.5;}#mermaid-0 .relationshipLine{stroke:#000000;}#mermaid-0 .entityTitleText{text-anchor:middle;font-size:18px;fill:#000000;}#mermaid-0 :root{--mermaid-font-family:"trebuchet ms",verdana,arial,sans-serif;}</style><g/><defs><marker orient="auto" markerHeight="18" markerWidth="18" refY="9" refX="0" id="ONLY_ONE_START"><path d="M9,0 L9,18 M15,0 L15,18" fill="none" stroke="gray"/></marker></defs><defs><marker orient="auto" markerHeight="18" markerWidth="18" refY="9" refX="18" id="ONLY_ONE_END"><path d="M3,0 L3,18 M9,0 L9,18" fill="none" stroke="gray"/></marker></defs><defs><marker orient="auto" markerHeight="18" markerWidth="30" refY="9" refX="0" id="ZERO_OR_ONE_START"><circle r="6" cy="9" cx="21" fill="white" stroke="gray"/><path d="M9,0 L9,18" fill="none" stroke="gray"/></marker></defs><defs><marker orient="auto" markerHeight="18" markerWidth="30" refY="9" refX="30" id="ZERO_OR_ONE_END"><circle r="6" cy="9" cx="9" fill="white" stroke="gray"/><path d="M21,0 L21,18" fill="none" stroke="gray"/></marker></defs><defs><marker orient="auto" markerHeight="36" markerWidth="45" refY="18" refX="18" id="ONE_OR_MORE_START"><path d="M0,18 Q 18,0 36,18 Q 18,36 0,18 M42,9 L42,27" fill="none" stroke="gray"/></marker></defs><defs><marker orient="auto" markerHeight="36" markerWidth="45" refY="18" refX="27" id="ONE_OR_MORE_END"><path d="M3,9 L3,27 M9,18 Q27,0 45,18 Q27,36 9,18" fill="none" stroke="gray"/></marker></defs><defs><marker orient="auto" markerHeight="36" markerWidth="57" refY="18" refX="18" id="ZERO_OR_MORE_START"><circle r="6" cy="18" cx="48" fill="white" stroke="gray"/><path d="M0,18 Q18,0 36,18 Q18,36 0,18" fill="none" stroke="gray"/></marker></defs><defs><marker orient="auto" markerHeight="36" markerWidth="57" refY="18" refX="39" id="ZERO_OR_MORE_END"><circle r="6" cy="18" cx="9" fill="white" stroke="gray"/><path d="M21,18 Q39,0 57,18 Q39,36 21,18" fill="none" stroke="gray"/></marker></defs><path style="stroke: gray; fill: none;" marker-start="url(#ZERO_OR_MORE_START)" marker-end="url(#ONLY_ONE_END)" d="M81.7939453125,110L81.7939453125,118.33333333333333C81.7939453125,126.66666666666667,81.7939453125,143.33333333333334,86.1799102247807,160C90.56587513706141,176.66666666666666,99.33780496162281,193.33333333333334,103.7237698739035,201.66666666666666L108.1097347861842,210" class="er relationshipLine"/><path style="stroke: gray; fill: none;" marker-start="url(#ZERO_OR_MORE_START)" marker-end="url(#ONLY_ONE_END)" d="M361.1929477892424,88L367.5087372629266,100C373.82452673661084,112,386.4561056839793,136,392.7718951576635,158.16666666666666C399.08768463134766,180.33333333333334,399.08768463134766,200.66666666666666,399.08768463134766,210.83333333333334L399.08768463134766,221" class="er relationshipLine"/><path style="stroke: gray; fill: none;" marker-start="url(#ZERO_OR_MORE_START)" marker-end="url(#ONLY_ONE_END)" d="M322.11794112356085,88L308.046770597759,100C293.9756000719572,112,265.83325902035364,136,242.47288036681059,156.33333333333334C219.11250171326753,176.66666666666666,200.53408545778507,193.33333333333334,191.24487733004386,201.66666666666666L181.95566920230263,210" class="er relationshipLine"/><g transform="translate(62.9349365234375,210 )" id="entity-habits-69a73f7a-560d-4ca5-923a-c820e8ccbda3"><rect height="90" width="137.718017578125" y="0" x="0" class="er entityBox"/><text style="dominant-baseline: middle; text-anchor: middle; font-size: 12px;" transform="translate(68.8590087890625,12)" y="0" x="0" id="text-entity-habits-69a73f7a-560d-4ca5-923a-c820e8ccbda3" class="er entityLabel">habits</text><rect height="22" width="54.095550537109375" y="24" x="0" class="er attributeBoxOdd"/><text style="dominant-baseline: middle; font-size: 10.2px;" transform="translate(5,35)" y="0" x="0" id="text-entity-habits-69a73f7a-560d-4ca5-923a-c820e8ccbda3-attr-1-type" class="er entityLabel">String</text><rect height="22" width="60.934783935546875" y="24" x="54.095550537109375" class="er attributeBoxOdd"/><text style="dominant-baseline: middle; font-size: 10.2px;" transform="translate(59.095550537109375,35)" y="0" x="0" id="text-entity-habits-69a73f7a-560d-4ca5-923a-c820e8ccbda3-attr-1-name" class="er entityLabel">id</text><rect height="22" width="22.68768310546875" y="24" x="115.03033447265625" class="er attributeBoxOdd"/><text style="dominant-baseline: middle; font-size: 10.2px;" transform="translate(120.03033447265625,35)" y="0" x="0" id="text-entity-habits-69a73f7a-560d-4ca5-923a-c820e8ccbda3-attr-1-key" class="er entityLabel">PK</text><rect height="22" width="54.095550537109375" y="46" x="0" class="er attributeBoxEven"/><text style="dominant-baseline: middle; font-size: 10.2px;" transform="translate(5,57)" y="0" x="0" id="text-entity-habits-69a73f7a-560d-4ca5-923a-c820e8ccbda3-attr-2-type" class="er entityLabel">String</text><rect height="22" width="60.934783935546875" y="46" x="54.095550537109375" class="er attributeBoxEven"/><text style="dominant-baseline: middle; font-size: 10.2px;" transform="translate(59.095550537109375,57)" y="0" x="0" id="text-entity-habits-69a73f7a-560d-4ca5-923a-c820e8ccbda3-attr-2-name" class="er entityLabel">title</text><rect height="22" width="22.68768310546875" y="46" x="115.03033447265625" class="er attributeBoxEven"/><text style="dominant-baseline: middle; font-size: 10.2px;" transform="translate(120.03033447265625,57)" y="0" x="0" id="text-entity-habits-69a73f7a-560d-4ca5-923a-c820e8ccbda3-attr-2-key" class="er entityLabel"/><rect height="22" width="54.095550537109375" y="68" x="0" class="er attributeBoxOdd"/><text style="dominant-baseline: middle; font-size: 10.2px;" transform="translate(5,79)" y="0" x="0" id="text-entity-habits-69a73f7a-560d-4ca5-923a-c820e8ccbda3-attr-3-type" class="er entityLabel">DateTime</text><rect height="22" width="60.934783935546875" y="68" x="54.095550537109375" class="er attributeBoxOdd"/><text style="dominant-baseline: middle; font-size: 10.2px;" transform="translate(59.095550537109375,79)" y="0" x="0" id="text-entity-habits-69a73f7a-560d-4ca5-923a-c820e8ccbda3-attr-3-name" class="er entityLabel">created_at</text><rect height="22" width="22.68768310546875" y="68" x="115.03033447265625" class="er attributeBoxOdd"/><text style="dominant-baseline: middle; font-size: 10.2px;" transform="translate(120.03033447265625,79)" y="0" x="0" id="text-entity-habits-69a73f7a-560d-4ca5-923a-c820e8ccbda3-attr-3-key" class="er entityLabel"/></g><g transform="translate(20,20 )" id="entity-Habitweekdays-181970ac-ba46-4fb1-bd7a-40f50ffbf2c7"><rect height="90" width="123.587890625" y="0" x="0" class="er entityBox"/><text style="dominant-baseline: middle; text-anchor: middle; font-size: 12px;" transform="translate(61.7939453125,12)" y="0" x="0" id="text-entity-Habitweekdays-181970ac-ba46-4fb1-bd7a-40f50ffbf2c7" class="er entityLabel">Habit_week_days</text><rect height="22" width="39.4800771077474" y="24" x="0" class="er attributeBoxOdd"/><text style="dominant-baseline: middle; font-size: 10.2px;" transform="translate(5,35)" y="0" x="0" id="text-entity-Habitweekdays-181970ac-ba46-4fb1-bd7a-40f50ffbf2c7-attr-1-type" class="er entityLabel">String</text><rect height="22" width="59.33611043294271" y="24" x="39.4800771077474" class="er attributeBoxOdd"/><text style="dominant-baseline: middle; font-size: 10.2px;" transform="translate(44.4800771077474,35)" y="0" x="0" id="text-entity-Habitweekdays-181970ac-ba46-4fb1-bd7a-40f50ffbf2c7-attr-1-name" class="er entityLabel">id</text><rect height="22" width="24.771703084309895" y="24" x="98.81618754069011" class="er attributeBoxOdd"/><text style="dominant-baseline: middle; font-size: 10.2px;" transform="translate(103.81618754069011,35)" y="0" x="0" id="text-entity-Habitweekdays-181970ac-ba46-4fb1-bd7a-40f50ffbf2c7-attr-1-key" class="er entityLabel">PK</text><rect height="22" width="39.4800771077474" y="46" x="0" class="er attributeBoxEven"/><text style="dominant-baseline: middle; font-size: 10.2px;" transform="translate(5,57)" y="0" x="0" id="text-entity-Habitweekdays-181970ac-ba46-4fb1-bd7a-40f50ffbf2c7-attr-2-type" class="er entityLabel">Int</text><rect height="22" width="59.33611043294271" y="46" x="39.4800771077474" class="er attributeBoxEven"/><text style="dominant-baseline: middle; font-size: 10.2px;" transform="translate(44.4800771077474,57)" y="0" x="0" id="text-entity-Habitweekdays-181970ac-ba46-4fb1-bd7a-40f50ffbf2c7-attr-2-name" class="er entityLabel">week_day</text><rect height="22" width="24.771703084309895" y="46" x="98.81618754069011" class="er attributeBoxEven"/><text style="dominant-baseline: middle; font-size: 10.2px;" transform="translate(103.81618754069011,57)" y="0" x="0" id="text-entity-Habitweekdays-181970ac-ba46-4fb1-bd7a-40f50ffbf2c7-attr-2-key" class="er entityLabel"/><rect height="22" width="39.4800771077474" y="68" x="0" class="er attributeBoxOdd"/><text style="dominant-baseline: middle; font-size: 10.2px;" transform="translate(5,79)" y="0" x="0" id="text-entity-Habitweekdays-181970ac-ba46-4fb1-bd7a-40f50ffbf2c7-attr-3-type" class="er entityLabel">String</text><rect height="22" width="59.33611043294271" y="68" x="39.4800771077474" class="er attributeBoxOdd"/><text style="dominant-baseline: middle; font-size: 10.2px;" transform="translate(44.4800771077474,79)" y="0" x="0" id="text-entity-Habitweekdays-181970ac-ba46-4fb1-bd7a-40f50ffbf2c7-attr-3-name" class="er entityLabel">habitId</text><rect height="22" width="24.771703084309895" y="68" x="98.81618754069011" class="er attributeBoxOdd"/><text style="dominant-baseline: middle; font-size: 10.2px;" transform="translate(103.81618754069011,79)" y="0" x="0" id="text-entity-Habitweekdays-181970ac-ba46-4fb1-bd7a-40f50ffbf2c7-attr-3-key" class="er entityLabel"/></g><g transform="translate(345.15316009521484,221 )" id="entity-days-0fd66d36-8ed1-40e0-8cee-89aa16c67505"><rect height="68" width="107.86904907226562" y="0" x="0" class="er entityBox"/><text style="dominant-baseline: middle; text-anchor: middle; font-size: 12px;" transform="translate(53.93452453613281,12)" y="0" x="0" id="text-entity-days-0fd66d36-8ed1-40e0-8cee-89aa16c67505" class="er entityLabel">days</text><rect height="22" width="54.095550537109375" y="24" x="0" class="er attributeBoxOdd"/><text style="dominant-baseline: middle; font-size: 10.2px;" transform="translate(5,35)" y="0" x="0" id="text-entity-days-0fd66d36-8ed1-40e0-8cee-89aa16c67505-attr-1-type" class="er entityLabel">String</text><rect height="22" width="31.0858154296875" y="24" x="54.095550537109375" class="er attributeBoxOdd"/><text style="dominant-baseline: middle; font-size: 10.2px;" transform="translate(59.095550537109375,35)" y="0" x="0" id="text-entity-days-0fd66d36-8ed1-40e0-8cee-89aa16c67505-attr-1-name" class="er entityLabel">id</text><rect height="22" width="22.68768310546875" y="24" x="85.18136596679688" class="er attributeBoxOdd"/><text style="dominant-baseline: middle; font-size: 10.2px;" transform="translate(90.18136596679688,35)" y="0" x="0" id="text-entity-days-0fd66d36-8ed1-40e0-8cee-89aa16c67505-attr-1-key" class="er entityLabel">PK</text><rect height="22" width="54.095550537109375" y="46" x="0" class="er attributeBoxEven"/><text style="dominant-baseline: middle; font-size: 10.2px;" transform="translate(5,57)" y="0" x="0" id="text-entity-days-0fd66d36-8ed1-40e0-8cee-89aa16c67505-attr-2-type" class="er entityLabel">DateTime</text><rect height="22" width="31.0858154296875" y="46" x="54.095550537109375" class="er attributeBoxEven"/><text style="dominant-baseline: middle; font-size: 10.2px;" transform="translate(59.095550537109375,57)" y="0" x="0" id="text-entity-days-0fd66d36-8ed1-40e0-8cee-89aa16c67505-attr-2-name" class="er entityLabel">date</text><rect height="22" width="22.68768310546875" y="46" x="85.18136596679688" class="er attributeBoxEven"/><text style="dominant-baseline: middle; font-size: 10.2px;" transform="translate(90.18136596679688,57)" y="0" x="0" id="text-entity-days-0fd66d36-8ed1-40e0-8cee-89aa16c67505-attr-2-key" class="er entityLabel"/></g><g transform="translate(299.08768463134766,42 )" id="entity-dayshabits-bf384592-0bf2-43c2-9ef9-e1bc49ad949b"><rect height="46" width="100" y="0" x="0" class="er entityBox"/><text style="dominant-baseline: middle; text-anchor: middle; font-size: 12px;" transform="translate(50,12)" y="0" x="0" id="text-entity-dayshabits-bf384592-0bf2-43c2-9ef9-e1bc49ad949b" class="er entityLabel">days_habits</text><rect height="22" width="44.39861551920573" y="24" x="0" class="er attributeBoxOdd"/><text style="dominant-baseline: middle; font-size: 10.2px;" transform="translate(5,35)" y="0" x="0" id="text-entity-dayshabits-bf384592-0bf2-43c2-9ef9-e1bc49ad949b-attr-1-type" class="er entityLabel">String</text><rect height="22" width="25.911142985026043" y="24" x="44.39861551920573" class="er attributeBoxOdd"/><text style="dominant-baseline: middle; font-size: 10.2px;" transform="translate(49.39861551920573,35)" y="0" x="0" id="text-entity-dayshabits-bf384592-0bf2-43c2-9ef9-e1bc49ad949b-attr-1-name" class="er entityLabel">id</text><rect height="22" width="29.69024149576823" y="24" x="70.30975850423177" class="er attributeBoxOdd"/><text style="dominant-baseline: middle; font-size: 10.2px;" transform="translate(75.30975850423177,35)" y="0" x="0" id="text-entity-dayshabits-bf384592-0bf2-43c2-9ef9-e1bc49ad949b-attr-1-key" class="er entityLabel">PK</text></g><rect height="14" width="27.96875" y="155.108642578125" x="72.7735366821289" class="er relationshipLabelBox"/><text style="text-anchor: middle; dominant-baseline: middle; font-size: 12px;" y="162.108642578125" x="86.7579116821289" id="rel1" class="er relationshipLabel">habit</text><rect height="14" width="19.990234375" y="144.62586975097656" x="380.7549133300781" class="er relationshipLabelBox"/><text style="text-anchor: middle; dominant-baseline: middle; font-size: 12px;" y="151.62586975097656" x="390.7500305175781" id="rel2" class="er relationshipLabel">day</text><rect height="14" width="27.96875" y="141.4492645263672" x="237.5721893310547" class="er relationshipLabelBox"/><text style="text-anchor: middle; dominant-baseline: middle; font-size: 12px;" y="148.4492645263672" x="251.5565643310547" id="rel3" class="er relationshipLabel">habit</text></svg>